<svg version="1" xmlns="http://www.w3.org/2000/svg" width="1422.667" height="1422.667" viewBox="0 0 1067 1067"><path d="M217.4 14c-19.6 5-35.7 17.4-43.3 33.4-4.4 9.1-5.5 13.9-6.5 27.1-.2 3.3-.7 6.7-1.1 7.6-1.6 4.2-2.3 4.3-74 4.2-52.4 0-68.9.2-70.1 1.2-1.5 1.1-1.7 4.3-1.7 30.9 0 21 .4 30.1 1.2 30.9.8.8 6.4 1.2 16.5 1.2 11.2 0 15.8.4 16.9 1.4 1.4 1.1 1.6 4.9 1.5 29.9 0 15.8-.5 29.5-1 30.4-.8 1.6-2.6 1.8-16.7 1.8-13.1 0-16.1.3-17.1 1.5s-1.3 8.1-1.3 29.2c.1 30.3.4 31.9 5.7 32.8 1.7.4 33.8.7 71.3.9 37.5.1 68.5.5 68.8.8.5.4.9 346.8.5 402.1v5.8l-4.7 2c-8.6 3.6-27.3 13.3-27.3 14.1 0 .4-.5.8-1.1.8-2.9 0-27.2 18.4-36.3 27.4-6.4 6.5-15.5 17.3-21 25.1-10.1 14.2-24.8 47-27.1 60.8-.3 1.8-1.2 5.9-2 9.2-.7 3.3-1.7 8.7-2 12-.4 3.3-1 7.9-1.5 10.3-.9 5-.6 33.7.5 40.2.7 4.3 2.8 15.8 3.9 20.9 1.8 8.1 8.3 25.5 13.6 36.1 6.8 13.7 9.3 18 10.2 18 .4 0 .8.4.8 1 0 2.8 17.3 24.4 27.5 34.3 29.7 28.9 70.1 48.1 110 52.3 14.6 1.5 40 .7 51.5-1.7 5-1 9-1.7 13.5-2.5 3.9-.8 24.8-7.7 30-10 2.2-1 4.2-1.8 4.5-1.9 2.4-.5 24.9-13.1 26-14.5.3-.4 1.2-.9 2-1.2 2.8-1.1 22.5-17.6 28.6-23.9 14.9-15.7 26.4-32.2 34.5-49.9 1.6-3.6 3.4-7.4 3.9-8.5 2.9-6.2 7.8-21.4 9.6-29.8 5.5-25.1 6.4-54.6 2.5-77.7-7.1-41.8-28.9-78.7-64.6-109.3-13.2-11.3-13.7-11.7-15-11.7-.7 0-1.5-.6-1.8-1.2-.3-.7-2.2-2.2-4.3-3.3-2.2-1-5-2.7-6.3-3.7-1.3-1-3-1.8-3.8-1.8-.8 0-3.3-1.3-5.6-2.9-2.3-1.5-5.3-3.2-6.7-3.6-1.4-.4-4.8-1.8-7.6-3l-5.1-2.3-.2-5.9c-.2-3.2-.4-143.5-.5-311.8-.2-287-.3-306.3-1.9-310.5-6.2-16-11.6-23.5-23.9-33.3-15-12-34.3-16.3-52.4-11.7zm27.2 869.3c10.3 2.5 20.1 7.9 27.4 14.9 19.6 18.7 24.2 48.1 11.3 70.8-6.8 11.8-14.6 19.1-26.8 25-9 4.4-10.9 4.9-21.5 5.6-27.3 2-53.6-17.3-60.6-44.5-1.8-7.3-2.4-16.9-1.3-22.1.4-1.9 1.1-5.1 1.4-7 .3-1.9 1.7-5.8 3-8.7 10.2-22.5 31.5-35.9 55.5-34.9 5.2.2 10.5.6 11.6.9z"/><path d="M341.3 87.1c-1.3.4-2.4 1.6-2.4 2.6-.6 7.9-.4 133.3.2 135 .5 1.2 1.7 2.7 2.9 3.3 1.5.8 52.2 1.2 179.8 1.5 97.7.1 179.1.5 180.7.8 1.7.3 5.9.8 9.5 1.1 20.7 1.8 46.7 10.1 61.5 19.5 23.5 15 36.8 35.3 42.2 64.5 2.5 13.9 2.2 43.8-.6 57.6-6.2 29.7-21.9 50.6-48.2 64.3-14.1 7.4-34.1 13.4-50.4 15.2-3.3.4-7.1.9-8.5 1.1-7.9 1.2-49.2 1.6-198 1.9-91 .2-166 .4-166.7.4-.7.1-2 1-3 2.1-1.8 1.8-1.9 5.5-1.8 69.4 0 63.5.1 67.6 1.8 69.3 1.7 1.7 7.5 1.8 112.6 1.8h110.7l4 2.6c2.5 1.7 6.7 6.8 11.9 14.5 4.4 6.6 8.4 12.4 9 13.1.5.6 8 11.3 16.5 23.8 8.5 12.4 17.5 25.5 20 29s9 13 14.5 21 13.6 19.7 18 26c4.4 6.3 9.9 14.3 12.3 17.7 16.6 24.1 43.7 63.2 46.9 67.8 2.2 3 6.4 9.1 9.4 13.5s6 8.6 6.6 9.3c.7.7 1.3 1.7 1.3 2.1 0 .4.8 1.6 1.8 2.7 2.6 2.9 20.4 29.8 26 39.5 10.1 17.1 13.1 27.4 9.8 33.6-2.9 5.8-12.4 11.4-24.2 14.3-4.7 1.2-6.6 3-6.6 6.2.1 5.5 1 14.9 1.5 15.4.8.8 307 .7 309.5 0 1.9-.6 2.2-1.5 2.1-6.4 0-3.1.2-6.6.4-7.7 1-4.6-2.1-6.8-10.8-7.9-11.4-1.3-25.2-7.2-35.3-14.9-7.7-6-21.5-20.6-32.9-34.8-8.5-10.8-27.9-37.7-67.2-93.4-8.5-12.1-15.8-22.2-16.1-22.5-.3-.3-.9-1.2-1.5-2.2-1.6-2.6-14.8-21.3-15.5-21.8-.3-.3-1.9-2.5-3.5-5-1.7-2.5-8.2-11.9-14.5-20.8-19.4-27.2-35.9-50.6-37-52.2-.6-.8-3.3-4.7-6.1-8.5-2.7-3.9-5.7-8.1-6.7-9.5-.9-1.4-9.2-13.2-18.4-26.2-9.3-13.1-16.8-24-16.8-24.2 0-.3 1.7-.8 3.8-1.2 51.4-8.8 88-21.3 126.7-43.3 17.5-10 42.1-31.4 55.5-48.5 4.5-5.5 8.5-10.6 9-11.3.6-.7 1-1.4 1-1.7 0-.2 1.7-3.1 3.8-6.3 15.3-23.4 28.4-62.4 32.6-97.5 2-16.1 2.7-43.8 1.4-57.3-1-11.2-2.8-27.1-3.4-29.7-.2-1.3-1.1-5.9-1.9-10.3-2.2-12.2-2.3-12.6-6-25.5-22.9-79.7-75.1-130.4-160-155.6-4.9-1.4-10.8-3-13-3.5-2.2-.4-4.9-1-6-1.3-11.4-2.6-23.9-4.9-33.4-6.2-1.9-.2-4.8-.7-6.5-1-1.7-.3-5.1-.7-7.5-.9-2.4-.2-6.9-.6-10-.9-14.5-1.4-22.6-1.9-57.6-3.3-22.4-.9-357-1.1-359.2-.2z"/></svg>